<svg viewBox="0 0 100 100" xmlns="http://www.w3.org/2000/svg" width="100" height="100">
  <defs>
    <linearGradient id="tdBg" x1="0" y1="0" x2="1" y2="1">
      <stop offset="0%" stop-color="#24183d"/>
      <stop offset="38%" stop-color="#12192b"/>
      <stop offset="100%" stop-color="#0d121c"/>
    </linearGradient>
    <radialGradient id="tdGlowA" cx="18%" cy="16%" r="90%">
      <stop offset="0%" stop-color="#8c6cff" stop-opacity=".38"/>
      <stop offset="55%" stop-color="#5aa3ff" stop-opacity=".12"/>
      <stop offset="100%" stop-color="#0d121c" stop-opacity="0"/>
    </radialGradient>
    <radialGradient id="tdGlowB" cx="82%" cy="82%" r="60%">
      <stop offset="0%" stop-color="#ff8f4d" stop-opacity=".16"/>
      <stop offset="100%" stop-color="#0d121c" stop-opacity="0"/>
    </radialGradient>
  </defs>
  <rect width="100" height="100" rx="22" fill="url(#tdBg)"/>
  <rect width="100" height="100" rx="22" fill="url(#tdGlowA)"/>
  <rect width="100" height="100" rx="22" fill="url(#tdGlowB)"/>
  <g fill="none" fill-rule="evenodd">
    <path fill="rgba(235,235,245,0.16)" d="M34.098 73.66c3.256 0 8.153-2.404 8.153-8.873v-21c0-1.146.202-1.393 1.235-1.596L61.5 38.485c1.146-.247 1.595.045 1.595 1.078l.157 14.083c0 1.146-.584 1.865-1.64 2.09l-3.346.74c-4.493.966-6.694 3.078-6.694 6.447 0 3.347 2.718 5.795 6.424 5.795 3.257 0 8.064-2.291 8.064-8.738V28.76c0-2.112-.966-2.763-3.392-2.291l-21.27 4.402c-1.483.292-2.27 1.1-2.27 2.381l.136 25.358c0 1.056-.494 1.775-1.438 1.954l-3.504.72c-4.447.943-6.558 3.166-6.558 6.603 0 3.391 2.628 5.772 6.334 5.772Z"/>
  </g>
</svg>
